<?xml version="1.0" standalone="no"?>
<!DOCTYPE svg PUBLIC "-//W3C//DTD SVG 20010904//EN"
 "http://www.w3.org/TR/2001/REC-SVG-20010904/DTD/svg10.dtd">
<svg version="1.0" xmlns="http://www.w3.org/2000/svg"
 width="500.000000pt" height="500.000000pt" viewBox="0 0 500.000000 500.000000"
 preserveAspectRatio="xMidYMid meet">

<g transform="translate(0.000000,500.000000) scale(0.100000,-0.100000)"
fill="#000000" stroke="none">
<path d="M1720 3325 l0 -115 60 0 60 0 0 55 0 55 665 0 665 0 0 -55 0 -55 55
0 55 0 0 115 0 115 -780 0 -780 0 0 -115z"/>
<path d="M1720 3070 l0 -60 780 0 780 0 0 60 0 60 -780 0 -780 0 0 -60z"/>
<path d="M1720 2749 l0 -180 48 6 c26 4 53 8 60 10 9 3 12 47 12 175 l0 170
-60 0 -60 0 0 -181z"/>
<path d="M2030 2668 c6 -296 3 -283 95 -413 46 -66 196 -213 269 -266 l46 -32
0 -114 c0 -134 13 -132 -143 -15 -124 93 -267 233 -332 325 -49 70 -118 214
-109 229 3 4 17 8 32 8 47 0 53 11 46 73 -5 46 -10 57 -23 53 -9 -2 -43 -7
-76 -11 -112 -11 -115 -12 -115 -52 0 -46 25 -141 56 -210 89 -203 330 -447
618 -627 49 -31 98 -56 108 -56 11 0 61 26 112 58 396 249 665 582 666 824 0
54 4 52 -122 66 l-77 8 -9 -55 c-11 -63 -6 -71 47 -71 31 0 33 -2 26 -27 -37
-153 -210 -363 -445 -539 -68 -52 -128 -94 -132 -94 -4 0 -8 49 -8 109 l0 109
48 38 c174 141 283 261 336 374 l31 65 3 253 3 252 -60 0 -61 0 0 -232 0 -233
-29 -60 c-44 -92 -158 -216 -296 -321 l-35 -26 -70 57 c-102 84 -211 203 -248
272 l-32 61 0 241 0 241 -62 0 -63 0 5 -262z"/>
<path d="M3170 2755 l0 -175 24 0 c13 0 38 -3 55 -6 l31 -6 0 181 0 181 -55 0
-55 0 0 -175z"/>
<path d="M2461 2817 c-73 -26 -101 -122 -54 -185 l22 -30 -19 -63 c-11 -35
-20 -65 -20 -66 0 -2 50 -3 110 -3 68 0 110 4 110 10 0 6 -7 37 -16 69 -16 57
-16 59 6 88 68 93 -30 219 -139 180z"/>
</g>
</svg>
