<?xml version="1.0" standalone="no"?>
<!DOCTYPE svg PUBLIC "-//W3C//DTD SVG 20010904//EN"
 "http://www.w3.org/TR/2001/REC-SVG-20010904/DTD/svg10.dtd">
<svg version="1.0" xmlns="http://www.w3.org/2000/svg"
 width="259.000000pt" height="286.000000pt" viewBox="0 0 259.000000 286.000000"
 preserveAspectRatio="xMidYMid meet">

<g transform="translate(0.000000,286.000000) scale(0.100000,-0.100000)"
fill="#FFFFFF" stroke="none">
<path d="M240 2495 l0 -155 75 0 75 0 0 75 0 75 890 0 890 0 0 -75 0 -75 70 0
70 0 0 155 0 155 -1035 0 -1035 0 0 -155z"/>
<path d="M230 2160 l0 -80 1045 0 1045 0 0 80 0 80 -1045 0 -1045 0 0 -80z"/>
<path d="M240 1730 l0 -240 23 0 c45 1 110 18 118 31 5 8 9 112 9 232 l0 217
-75 0 -75 0 0 -240z"/>
<path d="M645 1818 c3 -84 7 -232 9 -328 6 -229 14 -260 89 -373 69 -104 280
-322 390 -402 l67 -49 0 -126 c0 -93 -4 -131 -14 -146 -14 -18 -16 -18 -63 15
-213 149 -480 398 -564 526 -51 76 -113 196 -135 259 -17 46 -9 56 41 56 43 0
55 16 54 69 -1 68 -12 96 -35 94 -110 -11 -212 -27 -226 -34 -43 -23 -4 -208
76 -367 109 -215 310 -438 587 -648 109 -82 249 -175 313 -205 l42 -21 62 31
c195 99 497 338 663 527 150 170 257 347 294 489 19 73 20 178 2 193 -13 11
-154 32 -213 32 -31 0 -32 -1 -43 -61 -14 -80 -4 -99 49 -99 21 0 42 -5 45
-10 10 -17 -33 -132 -77 -206 -91 -154 -266 -342 -462 -498 -125 -100 -226
-170 -233 -162 -4 3 -9 68 -11 144 l-4 137 93 75 c120 96 273 247 333 330 27
36 68 104 92 152 l44 88 0 335 0 335 -75 0 -75 0 0 -310 0 -311 -26 -52 c-44
-86 -103 -168 -183 -251 -80 -83 -258 -236 -274 -236 -33 0 -291 244 -372 352
-99 131 -95 112 -95 483 l0 325 -85 0 -84 0 4 -152z"/>
<path d="M2170 1735 l0 -235 39 0 c21 0 53 -3 70 -6 l31 -6 0 241 0 241 -70 0
-70 0 0 -235z"/>
<path d="M1243 1820 c-52 -12 -83 -38 -105 -87 -25 -57 -20 -109 16 -164 l27
-40 -21 -67 c-11 -37 -23 -75 -26 -84 -5 -17 6 -18 135 -18 78 0 142 4 146 10
3 5 -3 42 -13 83 l-19 74 29 61 c25 50 29 69 23 102 -15 87 -107 150 -192 130z"/>
</g>
</svg>
